HIERARCHY
ROOT Hips
{
  OFFSET 54.202 84.304 7.35092
  CHANNELS 6 Xposition Yposition Zposition Zrotation Xrotation Yrotation
  JOINT spine
  {
    OFFSET 0 5.95438 0.342407
    CHANNELS 3 Zrotation Xrotation Yrotation
    JOINT spine1
    {
      OFFSET 0 8.85602 0
      CHANNELS 3 Zrotation Xrotation Yrotation
      JOINT spine2
      {
        OFFSET 0 8.48567 0
        CHANNELS 3 Zrotation Xrotation Yrotation
        JOINT Neck
        {
          OFFSET 0 21.7863 1.0387
          CHANNELS 3 Zrotation Xrotation Yrotation
          JOINT Head
          {
            OFFSET 0 6.5822 0
            CHANNELS 3 Zrotation Xrotation Yrotation
            End Site
            {
              OFFSET 0 15.9326 -5.25436
            }
          }
        }
        JOINT RightShoulder
        {
          OFFSET -3.57307 9.16386 -0.497525
          CHANNELS 3 Zrotation Xrotation Yrotation
          JOINT RightArm
          {
            OFFSET 0 12.0192 0
            CHANNELS 3 Zrotation Xrotation Yrotation
            JOINT RightArmRoll
            {
              OFFSET 0 6.06755 0
              CHANNELS 3 Zrotation Xrotation Yrotation
              JOINT RightForeArm
              {
                OFFSET 0 17.6726 0
                CHANNELS 3 Zrotation Xrotation Yrotation
                JOINT RightForeArmRoll
                {
                  OFFSET 0 6.80873 0
                  CHANNELS 3 Zrotation Xrotation Yrotation
                  JOINT RightHand
                  {
                    OFFSET 0 13.6636 0
                    CHANNELS 3 Zrotation Xrotation Yrotation
                    End Site
                    {
                      OFFSET 0 0 0
                    }
                  }
                }
              }
            }
          }
        }
        JOINT LeftShoulder
        {
          OFFSET 3.57307 9.16386 -0.497525
          CHANNELS 3 Zrotation Xrotation Yrotation
          JOINT LeftArm
          {
            OFFSET 0 12.0192 0
            CHANNELS 3 Zrotation Xrotation Yrotation
            JOINT LeftArmRoll
            {
              OFFSET 0 6.06755 0
              CHANNELS 3 Zrotation Xrotation Yrotation
              JOINT LeftForeArm
              {
                OFFSET 0 17.6726 0
                CHANNELS 3 Zrotation Xrotation Yrotation
                JOINT LeftForeArmRoll
                {
                  OFFSET 0 6.80872 0
                  CHANNELS 3 Zrotation Xrotation Yrotation
                  JOINT LeftHand
                  {
                    OFFSET 0 13.6636 0
                    CHANNELS 3 Zrotation Xrotation Yrotation
                    End Site
                    {
                      OFFSET 0 0 0
                    }
                  }
                }
              }
            }
          }
        }
      }
    }
  }
  JOINT RightUpLeg
  {
    OFFSET -5.27774 -0.967797 -0.811858
    CHANNELS 3 Zrotation Xrotation Yrotation
    JOINT RightUpLegRoll
    {
      OFFSET 0 16.0214 0
      CHANNELS 3 Zrotation Xrotation Yrotation
      JOINT RightLeg
      {
        OFFSET 0 -19.8401 0
        CHANNELS 3 Zrotation Xrotation Yrotation
        JOINT RightLegRoll
        {
          OFFSET 0 19.905 0
          CHANNELS 3 Zrotation Xrotation Yrotation
          JOINT RightFoot
          {
            OFFSET 0 16.5675 0
            CHANNELS 3 Zrotation Xrotation Yrotation
            JOINT RightToeBase
            {
              OFFSET 0 13.8496 0
              CHANNELS 3 Zrotation Xrotation Yrotation
              End Site
              {
                OFFSET 0.00587034 6.70727 -0.773117
              }
            }
          }
        }
      }
    }
  }
  JOINT LeftUpLeg
  {
    OFFSET 5.27774 -0.967797 -0.811858
    CHANNELS 3 Zrotation Xrotation Yrotation
    JOINT LeftUpLegRoll
    {
      OFFSET 0 16.0215 0
      CHANNELS 3 Zrotation Xrotation Yrotation
      JOINT LeftLeg
      {
        OFFSET 0 19.84 0
        CHANNELS 3 Zrotation Xrotation Yrotation
        JOINT LeftLegRoll
        {
          OFFSET 0 20.089 0
          CHANNELS 3 Zrotation Xrotation Yrotation
          JOINT LeftFoot
          {
            OFFSET 0 16.3835 0
            CHANNELS 3 Zrotation Xrotation Yrotation
            JOINT LeftToeBase
            {
              OFFSET 0 13.8496 0
              CHANNELS 3 Zrotation Xrotation Yrotation
              End Site
              {
                OFFSET -0.0263083 6.70727 -0.773117
              }
            }
          }
        }
      }
    }
  }
}
MOTION
Frames: 9
Frame Time: 0.00208333
50.0925 84.1957 5.63265 0.279538 -1.85728 8.26217 -0.533805 -2.36322 0.0447203 -1.06749 -0.724483 0.137832 -1.06929 0.920425 0.154728 -37.7295 -1.18728 -1.92393 42.5011 10.6948 -11.2945 -13.3581 -10.8511 -7.84108 2.82665 45.6301 83.8993 -1.37021e-005 -2.97968e-006 -2.56064e-007 -12.9873 80.2914 8.23031 2.28692e-006 1.08807e-006 -2.99999 8.03011 -4.95138 0.697627 -96.8628 -10.1366 6.36512 -77.2427 28.6381 -15.4785 -3.37456e-006 2.25737e-006 5.2915e-008 3.6379 -0.0273804 1.99255 1.24367e-005 1.81084e-006 3.01161 -8.0301 -4.95137 -0.697638 -177.656 1.8474 0.66097 180 7.01552e-015 178.944 178.508 8.06297 179.827 4.46378e-006 -1.1319e-006 0.154163 -19.9594 69.5491 20.9201 8.13649 25.2327 -3.48774 -176.589 5.7907 -1.41312 4.54188e-006 -4.6773e-006 -1.02212 -2.67701 -12.3577 0.0658158 -6.33155e-007 4.57564e-006 -0.191594 19.6082 69.2015 -20.5913 -8.13649 25.2327 3.48774 
50.1046 84.1969 5.64244 0.275967 -1.85495 8.20065 -0.530904 -2.36689 0.0441303 -1.06168 -0.731813 0.136558 -1.06347 0.913097 0.153144 -37.5294 -1.0839 -1.87638 42.2779 10.6165 -11.1956 -13.2867 -10.8955 -7.95128 3.28801 45.349 83.564 -1.37021e-005 -2.97968e-006 -2.56064e-007 -12.8881 80.2013 8.13049 2.28692e-006 1.08807e-006 -2.99999 8.03011 -4.95138 0.697627 -96.7565 -10.117 6.36034 -77.3579 28.5533 -15.4022 -3.37456e-006 2.25737e-006 5.2915e-008 3.6379 -0.0273937 1.99255 1.24367e-005 1.81084e-006 3.01161 -8.0301 -4.95137 -0.697638 -177.67 1.85331 0.668917 180 7.01552e-015 178.944 178.505 8.06957 179.827 4.46378e-006 -1.1319e-006 0.154413 -19.9583 69.5481 20.9188 8.13649 25.2327 -3.48774 -176.597 5.77533 -1.40994 4.54188e-006 -4.6773e-006 -1.02222 -2.6786 -12.3545 0.0655984 -6.33155e-007 4.57564e-006 -0.191578 19.61 69.2036 -20.5932 -8.13649 25.2327 3.48774 
50.1345 84.1836 5.68015 0.270924 -1.8529 8.13845 -0.527492 -2.37046 0.0435349 -1.05479 -0.738933 0.135273 -1.05656 0.905978 0.151508 -37.3331 -0.979982 -1.82738 42.058 10.5348 -11.0949 -13.2157 -10.9406 -8.06346 3.73266 45.07 83.2426 -1.37021e-005 -2.97968e-006 -2.56064e-007 -12.7728 80.094 8.0145 2.28692e-006 1.08807e-006 -2.99999 8.03011 -4.95138 0.697627 -96.6508 -10.0975 6.3556 -77.4733 28.4691 -15.3255 -3.37456e-006 2.25737e-006 5.2915e-008 3.6379 -0.0274204 1.99255 1.24367e-005 1.81084e-006 3.01161 -8.0301 -4.95137 -0.697638 -177.682 1.85858 0.676082 180 7.01552e-015 178.944 178.502 8.07449 179.828 4.46378e-006 -1.1319e-006 0.154661 -19.9562 69.5462 20.9166 8.13649 25.2327 -3.48774 -176.605 5.76074 -1.40768 4.54188e-006 -4.6773e-006 -1.02233 -2.68015 -12.353 0.0654108 -6.33155e-007 4.57564e-006 -0.191561 19.6122 69.2061 -20.5956 -8.13649 25.2327 3.48774 
50.1516 84.1873 5.68848 0.264687 -1.85102 8.07569 -0.523687 -2.37393 0.0429337 -1.04707 -0.745861 0.133976 -1.04882 0.899053 0.149832 -37.1394 -0.875651 -1.77731 41.8403 10.45 -10.9928 -13.1443 -10.9864 -8.17743 4.16344 44.7922 82.9326 -1.37021e-005 -2.97968e-006 -2.56064e-007 -12.6448 79.9718 7.88561 2.28692e-006 1.08807e-006 -2.99999 8.03011 -4.95138 0.697627 -96.5449 -10.0781 6.35087 -77.5896 28.3855 -15.2478 -3.37456e-006 2.25737e-006 5.2915e-008 3.6379 -0.0274565 1.99256 1.24367e-005 1.81084e-006 3.01161 -8.0301 -4.95137 -0.697638 -177.693 1.8635 0.682653 180 7.01552e-015 178.944 178.498 8.07829 179.828 4.46378e-006 -1.1319e-006 0.15491 -19.9535 69.5437 20.9136 8.13649 25.2327 -3.48774 -176.611 5.74687 -1.40613 4.54188e-006 -4.6773e-006 -1.02244 -2.68165 -12.3527 0.0652505 -6.33155e-007 4.57564e-006 -0.191544 19.6146 69.2088 -20.5982 -8.13649 25.2327 3.48774 
50.1617 84.1994 5.69692 0.257531 -1.84921 8.01247 -0.519608 -2.37731 0.0423266 -1.03875 -0.752613 0.132667 -1.04048 0.892303 0.148124 -36.9469 -0.771023 -1.72659 41.6237 10.3625 -10.8892 -13.0717 -11.0329 -8.29295 4.58317 44.5142 82.6316 -1.37021e-005 -2.97968e-006 -2.56064e-007 -12.5071 79.8367 7.74695 2.28692e-006 1.08807e-006 -2.99999 8.03011 -4.95138 0.697627 -96.4382 -10.0588 6.34613 -77.7075 28.3023 -15.1687 -3.37456e-006 2.25737e-006 5.2915e-008 3.6379 -0.0274985 1.99256 1.24367e-005 1.81084e-006 3.01161 -8.0301 -4.95137 -0.697638 -177.704 1.8684 0.68882 180 7.01552e-015 178.944 178.495 8.08148 179.828 4.46378e-006 -1.1319e-006 0.155162 -19.9503 69.5406 20.9102 8.13649 25.2327 -3.48774 -176.616 5.73367 -1.40507 4.54188e-006 -4.6773e-006 -1.02256 -2.68309 -12.3536 0.0651153 -6.33155e-007 4.57564e-006 -0.191527 19.6172 69.2117 -20.6009 -8.13649 25.2327 3.48774 
50.1817 84.1941 5.70085 0.249735 -1.84737 7.9489 -0.515373 -2.38061 0.0417132 -1.03008 -0.759206 0.131347 -1.0318 0.885712 0.146395 -36.7542 -0.666217 -1.67562 41.407 10.2727 -10.7845 -12.9973 -11.08 -8.40982 4.99454 44.2351 82.3375 -1.37021e-005 -2.97968e-006 -2.56064e-007 -12.3627 79.6907 7.60149 2.28692e-006 1.08807e-006 -2.99999 8.03011 -4.95138 0.697627 -96.33 -10.0394 6.34133 -77.8276 28.2195 -15.0878 -3.37456e-006 2.25737e-006 5.2915e-008 3.6379 -0.0275425 1.99256 1.24367e-005 1.81084e-006 3.01161 -8.0301 -4.95137 -0.697638 -177.713 1.87356 0.694772 180 7.01552e-015 178.944 178.492 8.08459 179.829 4.46378e-006 -1.1319e-006 0.15542 -19.9468 69.5373 20.9065 8.13649 25.2327 -3.48774 -176.621 5.7211 -1.40429 4.54188e-006 -4.6773e-006 -1.02269 -2.68446 -12.3552 0.0650028 -6.33155e-007 4.57564e-006 -0.191509 19.6199 69.2146 -20.6037 -8.13649 25.2327 3.48774 
50.1951 84.1926 5.66703 0.241575 -1.84541 7.88508 -0.511099 -2.38385 0.0410933 -1.02131 -0.765658 0.130017 -1.02301 0.879262 0.144655 -36.5599 -0.561354 -1.62478 41.1892 10.181 -10.6789 -12.9202 -11.1278 -8.52781 5.40008 43.9534 82.0481 -1.37021e-005 -2.97968e-006 -2.56064e-007 -12.2142 79.5362 7.45192 2.28692e-006 1.08807e-006 -2.99999 8.03011 -4.95138 0.697627 -96.2196 -10.0199 6.33646 -77.9505 28.1369 -15.0045 -3.37456e-006 2.25737e-006 5.2915e-008 3.6379 -0.0275848 1.99257 1.24367e-005 1.81084e-006 3.01161 -8.0301 -4.95137 -0.697638 -177.723 1.87929 0.700699 180 7.01552e-015 178.944 178.488 8.08815 179.829 4.46378e-006 -1.1319e-006 0.155686 -19.9434 69.5341 20.9028 8.13649 25.2327 -3.48774 -176.625 5.70911 -1.40357 4.54188e-006 -4.6773e-006 -1.02282 -2.68574 -12.3574 0.0649109 -6.33155e-007 4.57564e-006 -0.191491 19.6225 69.2175 -20.6065 -8.13649 25.2327 3.48774 
50.2208 84.1957 5.68689 0.23333 -1.84321 7.82113 -0.506905 -2.38702 0.0404665 -1.01267 -0.771986 0.128675 -1.01436 0.872937 0.142914 -36.3628 -0.45655 -1.5745 40.9692 10.0878 -10.5725 -12.8396 -11.1762 -8.64671 5.8023 43.6679 81.7614 -1.37021e-005 -2.97968e-006 -2.56064e-007 -12.0642 79.375 7.30073 2.28692e-006 1.08807e-006 -2.99999 8.03011 -4.95138 0.697627 -96.1063 -10.0002 6.33147 -78.0768 28.0544 -14.9185 -3.37456e-006 2.25737e-006 5.2915e-008 3.6379 -0.0276216 1.99257 1.24367e-005 1.81084e-006 3.01161 -8.0301 -4.95137 -0.697638 -177.732 1.8859 0.706791 180 7.01552e-015 178.944 178.484 8.09266 179.83 4.46378e-006 -1.1319e-006 0.155964 -19.9402 69.531 20.8993 8.13649 25.2327 -3.48774 -176.63 5.69764 -1.4027 4.54188e-006 -4.6773e-006 -1.02296 -2.68692 -12.3599 0.064837 -6.33155e-007 4.57564e-006 -0.191473 19.6249 69.2203 -20.6092 -8.13649 25.2327 3.48774 
50.2104 84.1962 5.68333 0.225278 -1.84068 7.75714 -0.502909 -2.39013 0.0398326 -1.00442 -0.778206 0.127323 -1.00609 0.866719 0.14118 -36.1615 -0.351926 -1.52515 40.7458 9.9934 -10.4655 -12.7548 -11.2253 -8.76631 6.20359 43.3773 81.4756 -1.37021e-005 -2.97968e-006 -2.56064e-007 -11.9148 79.2094 7.15012 2.28692e-006 1.08807e-006 -2.99999 8.03011 -4.95138 0.697627 -95.9893 -9.9802 6.32633 -78.2072 27.972 -14.8291 -3.37456e-006 2.25737e-006 5.2915e-008 3.6379 -0.0276493 1.99257 1.24367e-005 1.81084e-006 3.01161 -8.0301 -4.95137 -0.697638 -177.743 1.89369 0.713236 180 7.01552e-015 178.944 178.48 8.09869 179.83 4.46378e-006 -1.1319e-006 0.156256 -19.9374 69.5284 20.8963 8.13649 25.2327 -3.48774 -176.635 5.68666 -1.40148 4.54188e-006 -4.6773e-006 -1.0231 -2.688 -12.3623 0.0647791 -6.33155e-007 4.57564e-006 -0.191454 19.6272 69.2228 -20.6116 -8.13649 25.2327 3.48774 
